<svg xmlns="http://www.w3.org/2000/svg" xmlns:xlink="http://www.w3.org/1999/xlink" width="30px" height="10px">
    <path fill-rule="evenodd" d="M29.235,5.496 L29.235,5.497 L25.088,9.643 L25.088,9.643 C24.963,9.763 24.794,9.837 24.608,9.837 C24.226,9.837 23.917,9.528 23.917,9.146 C23.917,8.960 23.991,8.791 24.110,8.666 L24.110,8.666 L27.087,5.690 L11.232,5.690 L8.768,5.690 L1.786,5.690 C1.105,5.690 0.554,5.381 0.554,4.999 C0.554,4.617 1.105,4.308 1.786,4.308 L8.768,4.308 L11.232,4.308 L27.089,4.308 L24.158,1.376 C24.010,1.249 23.917,1.061 23.917,0.852 C23.917,0.470 24.226,0.160 24.608,0.160 C24.793,0.160 24.962,0.234 25.086,0.353 L25.088,0.351 L29.235,4.498 L29.235,4.498 C29.365,4.624 29.446,4.800 29.446,4.996 C29.446,4.996 29.446,4.997 29.446,4.998 C29.446,4.998 29.446,4.998 29.446,4.999 C29.446,5.194 29.365,5.371 29.235,5.496 Z"/>
</svg>